# xmcd
#
# Track frame offsets: 
#        150
#        12157
#        23962
#        35797
#        39179
#        41774
#        52304
#        63059
#        73131
#        85866
#        95976
#        106401
#        115896
#        120816
#        131788
#        142843
#        159448
#        168958
#        176413
#        185038
#        193378
#        210868
#        222328
#
# Disc length: 3080 seconds
#
# Revision: 0
# Processed by: cddbd v1.5.2PL0 Copyright (c) Steve Scherf et al.
# Submitted via: ExactAudioCopy v0.99pb5
#
DISCID=4a0c0617
DTITLE=Pearl River Boys - Pearl River Boys Live 1950's
DYEAR=1900
DGENRE=Country
TTITLE0=Foolin' Around
TTITLE1=Orange Blossom Special
TTITLE2=Tattooed Lady
TTITLE3=Happy Birthday
TTITLE4=Speedin' West
TTITLE5=Letters Have No Arms
TTITLE6=I Love You Because
TTITLE7=I Can't Help It
TTITLE8=Sweet Georgia Brown
TTITLE9=Alabam
TTITLE10=Alabama Jubilee
TTITLE11=Poison Love
TTITLE12=Boil That Cabbage Down
TTITLE13=Bye Bye Blues
TTITLE14=Who's Sorry Now
TTITLE15=Vaya Con Dios
TTITLE16=Bummin' Around
TTITLE17=12th Street Rag
TTITLE18=Teambone
TTITLE19=Roadside Rag
TTITLE20=Driftwood On The River
TTITLE21=I Don't Believe You've Met My Baby
TTITLE22=Over The Rainbow
EXTD=
EXTT0=
EXTT1=
EXTT2=
EXTT3=
EXTT4=
EXTT5=
EXTT6=
EXTT7=
EXTT8=
EXTT9=
EXTT10=
EXTT11=
EXTT12=
EXTT13=
EXTT14=
EXTT15=
EXTT16=
EXTT17=
EXTT18=
EXTT19=
EXTT20=
EXTT21=
EXTT22=
PLAYORDER=
